<?xml version="1.0" encoding="UTF-8"?>
<svg version="1.1" xmlns="http://www.w3.org/2000/svg" width="824" height="303">
<path d="M0 0 C5.61 0 11.22 0 17 0 C17.103125 2.784375 17.20625 5.56875 17.3125 8.4375 C19.03341844 44.03995893 32.13204092 78.69217487 54.75 106.2578125 C56 108 56 108 56 110 C56.66 110 57.32 110 58 110 C59.23372928 111.70054576 60.46224863 113.40535587 61.65234375 115.13671875 C63.51625561 117.71377949 65.69908607 119.8086534 68 122 C68.48984375 122.51046875 68.9796875 123.0209375 69.484375 123.546875 C105.03610802 160.45295975 153.48758374 176.1507877 203 182 C203 182.33 203 182.66 203 183 C193.95010704 183.11645355 184.90047663 183.20499616 175.84999466 183.25906086 C171.64630698 183.28502478 167.44313632 183.32017672 163.23974609 183.37719727 C159.17426306 183.43199452 155.10927358 183.46151952 151.0434494 183.47438622 C149.50144442 183.48354145 147.95946286 183.5014169 146.4176712 183.52865028 C136.62171936 183.69461373 128.85265851 182.61542294 120 178 C118.70217339 177.36325851 118.70217339 177.36325851 117.37812805 176.71365356 C115.08079741 175.58176567 112.82039782 174.3959863 110.5625 173.1875 C109.74974609 172.75518066 108.93699219 172.32286133 108.09960938 171.87744141 C97.17922989 166.01367242 86.89522821 159.47842132 77 152 C76.25363281 151.44828125 75.50726563 150.8965625 74.73828125 150.328125 C44.82893669 127.77529786 20.5870394 94.90319083 9.61474609 58.984375 C9.00525403 57.01695978 8.34574159 55.07254771 7.67578125 53.125 C4.74926566 44.31503658 3.08370853 35.42132128 1.6875 26.25 C1.51589355 25.1377002 1.34428711 24.02540039 1.16748047 22.87939453 C0.07667291 15.18914439 -0.14441024 7.76606161 0 0 Z " fill="#1899D2" transform="translate(306,30)"/>
<path d="M0 0 C0.20044922 0.55236328 0.40089844 1.10472656 0.60742188 1.67382812 C5.05640712 13.85052924 9.83427076 25.5908306 16 37 C16.48702393 37.91386475 16.48702393 37.91386475 16.98388672 38.84619141 C21.60873213 47.47202305 26.92727929 55.32416596 33 63 C34.07507813 64.38251953 34.07507813 64.38251953 35.171875 65.79296875 C38.58304365 70.13387321 42.08206156 74.1056992 46 78 C48.61791048 80.87302919 51.20611805 83.77087902 53.79296875 86.671875 C55.77817757 89.03135419 55.77817757 89.03135419 58 90 C58 90.66 58 91.32 58 92 C58.57621094 92.25523437 59.15242188 92.51046875 59.74609375 92.7734375 C62.23519766 94.12799318 63.99742809 95.68730636 66.0625 97.625 C74.33185057 105.1093713 83.55334496 111.1206133 93 117 C95.06468178 118.2881763 97.12724456 119.57975618 99.1875 120.875 C100.10917969 121.44992188 101.03085937 122.02484375 101.98046875 122.6171875 C102.64691406 123.07351562 103.31335938 123.52984375 104 124 C104 124.33 104 124.66 104 125 C100.05355178 125.17511546 96.10865348 125.30100796 92.15917969 125.38452148 C90.16781002 125.43638505 88.1775186 125.52540715 86.1875 125.61523438 C76.88505034 125.77967162 71.95484701 124.10259256 65 118 C63.82829155 117.12591967 62.64943161 116.2612725 61.4609375 115.41015625 C55.83182185 111.12775308 50.52320725 106.79337169 45.62890625 101.6640625 C43.9269716 99.85163315 43.9269716 99.85163315 41.4375 98 C38.58743379 95.66148413 36.33266979 93.058565 33.9453125 90.2578125 C31.88940158 87.87163476 29.76099588 85.56461575 27.625 83.25 C18.94978836 73.60434096 11.8272828 62.98686806 5 52 C4.42765625 51.11699219 3.8553125 50.23398438 3.265625 49.32421875 C-1.08081351 42.33887115 -4.40698375 34.94367268 -7.75 27.4375 C-8.22228027 26.38457764 -8.69456055 25.33165527 -9.18115234 24.24682617 C-12.07956168 17.6132304 -14.3134021 11.04058597 -16 4 C-13.70922959 3.33011414 -11.41748541 2.66396838 -9.125 2 C-8.47402344 1.80921875 -7.82304687 1.6184375 -7.15234375 1.421875 C-2.2265625 0 -2.2265625 0 0 0 Z " fill="#1899D2" transform="translate(300,88)"/>
<path d="M0 0 C0.99 0.33 1.98 0.66 3 1 C-1.38248861 6.44961941 -5.78849367 11.83146925 -10.5 17 C-13.61458668 20.41739372 -16.5918662 23.9052235 -19.5 27.5 C-23.11032442 31.96276213 -26.88427929 36.22719533 -30.75 40.46875 C-33.07862053 43.0884481 -35.29562947 45.7751531 -37.5 48.5 C-43.30196514 55.66116677 -49.37370236 62.58745389 -56 69 C-56.66386719 68.39671875 -57.32773437 67.7934375 -58.01171875 67.171875 C-58.89472656 66.37265625 -59.77773438 65.5734375 -60.6875 64.75 C-61.55761719 63.96109375 -62.42773438 63.1721875 -63.32421875 62.359375 C-65.96220333 59.97651249 -65.96220333 59.97651249 -68.76953125 57.890625 C-71 56 -71 56 -72 53 C-59.64276453 43.70357618 -47.20039471 34.52351435 -34.59765625 25.5625 C-16.56077248 13.67848061 -16.56077248 13.67848061 0 0 Z " fill="#209DD3" transform="translate(469,75)"/>
<path d="M0 0 C2.866875 -0.103125 5.73375 -0.20625 8.6875 -0.3125 C10.02880981 -0.38078003 10.02880981 -0.38078003 11.3972168 -0.45043945 C15.69071881 -0.52507137 17.49037727 -0.38009089 21.04296875 2.26953125 C23.42618241 5.59461378 23.73184756 7.11948297 23.5078125 11.0625 C22.65875365 14.30198608 20.53793611 15.96965111 18 18 C19.98 20.64 21.96 23.28 24 26 C25.77911425 23.33132863 26.79858056 21.15651713 27.91015625 18.18359375 C28.26013672 17.25482422 28.61011719 16.32605469 28.97070312 15.36914062 C29.33099609 14.40169922 29.69128906 13.43425781 30.0625 12.4375 C30.78169916 10.51921126 31.5017114 8.6012271 32.22265625 6.68359375 C32.53984619 5.83337646 32.85703613 4.98315918 33.18383789 4.10717773 C34 2 34 2 35 0 C38.96 0 42.92 0 47 0 C54.48291572 19.96810934 54.48291572 19.96810934 57 29 C54.03 29 51.06 29 48 29 C47.67 27.35 47.34 25.7 47 24 C45.2312602 23.86486708 43.45956945 23.76794414 41.6875 23.6875 C40.70136719 23.62949219 39.71523438 23.57148438 38.69921875 23.51171875 C37.36310547 23.75341797 37.36310547 23.75341797 36 24 C35.57074219 24.81726563 35.14148438 25.63453125 34.69921875 26.4765625 C33 29 33 29 31.16772461 29.50805664 C28.8022729 29.71152239 26.49857766 29.73089609 24.125 29.6875 C23.32191406 29.71521484 22.51882813 29.74292969 21.69140625 29.77148438 C18.4170071 29.75799838 15.98148159 29.74507255 13.31542969 27.72119141 C11.01252552 25.10100904 10 23.52536643 10 20 C9.34 20 8.68 20 8 20 C8 22.97 8 25.94 8 29 C5.36 29 2.72 29 0 29 C0 19.43 0 9.86 0 0 Z M9 6 C7.70366379 7.06645115 7.70366379 7.06645115 7.9375 9.5625 C7.958125 10.366875 7.97875 11.17125 8 12 C9.83700789 12.77242269 9.83700789 12.77242269 12 13 C13.77190909 11.64555699 13.77190909 11.64555699 15 10 C14.67 9.01 14.34 8.02 14 7 C12.34385343 6.61781233 10.67542976 6.28604898 9 6 Z M40 7 C38.80712589 10.87684087 38 13.91621923 38 18 C39.98 18 41.96 18 44 18 C43.76995266 12.6092003 43.76995266 12.6092003 41.4375 8 C40.963125 7.67 40.48875 7.34 40 7 Z " fill="#1799D1" transform="translate(438,242)"/>
<path d="M0 0 C1.37535339 1.97133986 2.70211044 3.97681922 4 6 C5.65182634 7.68137601 7.32173552 9.34501242 9 11 C10.1453013 12.21836597 11.28418963 13.44277955 12.41796875 14.671875 C23.81402398 27.32751988 23.81402398 27.32751988 37 38 C37 38.66 37 39.32 37 40 C38.32 40.66 39.64 41.32 41 42 C41 42.33 41 42.66 41 43 C19.9850996 44.46808177 19.9850996 44.46808177 13.42578125 41.2421875 C10.97710373 38.97418163 8.99519853 36.67029803 7 34 C5.82953697 32.85728501 4.6428763 31.73082513 3.4375 30.625 C-0.28926815 26.84536989 -3.59058097 22.72654525 -6.91015625 18.58984375 C-8.58538174 16.51381665 -10.30065584 14.50141503 -12.0625 12.5 C-14 10 -14 10 -14 7 C-11.69921875 5.17578125 -11.69921875 5.17578125 -8.6875 3.3125 C-7.20830078 2.37857422 -7.20830078 2.37857422 -5.69921875 1.42578125 C-3 0 -3 0 0 0 Z " fill="#1F9CD3" transform="translate(309,170)"/>
<path d="M0 0 C3.97282203 2.25905567 6.15635816 4.75021632 8.1875 8.8125 C8.78385648 13.3644362 9.21009119 17.87026304 7.0234375 22.0234375 C3.51274914 26.29027412 0.11529199 28.44112815 -5.4609375 29.1484375 C-12.8527159 29.2543369 -17.09810286 28.27073182 -22.625 23.125 C-24.83727361 18.81688822 -26.46917052 14.42540579 -25.25390625 9.58984375 C-23.11080236 4.83233097 -20.48102986 2.29576056 -15.8125 -0.1875 C-10.38923557 -1.99525481 -5.42822398 -1.69075829 0 0 Z M-15.8125 10.8125 C-16.44257693 14.80298721 -16.44271887 16.82935857 -14.25 20.25 C-10.84530512 22.43249672 -8.77819988 22.44984462 -4.8125 21.8125 C-1.8888541 19.2636805 -0.96340824 17.61734394 -0.25 13.8125 C-1.01385228 9.73862115 -2.54001064 8.28504751 -5.8125 5.8125 C-10.71812418 4.58609396 -12.95447926 6.97458644 -15.8125 10.8125 Z " fill="#1E9CD3" transform="translate(399.8125,242.1875)"/>
<path d="M0 0 C2.97 0 5.94 0 9 0 C9.06058594 1.26457031 9.12117188 2.52914062 9.18359375 3.83203125 C9.26800904 5.49219871 9.35265655 7.15235437 9.4375 8.8125 C9.47681641 9.64587891 9.51613281 10.47925781 9.55664062 11.33789062 C9.61948242 12.54155273 9.61948242 12.54155273 9.68359375 13.76953125 C9.72025146 14.50792236 9.75690918 15.24631348 9.79467773 16.00708008 C9.94842141 18.207495 9.94842141 18.207495 11 21 C12.99954746 21.04254356 15.00041636 21.04080783 17 21 C18.58403524 19.41596476 18.21974935 17.7228362 18.31640625 15.52734375 C18.35830078 14.62822266 18.40019531 13.72910156 18.44335938 12.80273438 C18.48267578 11.85720703 18.52199219 10.91167969 18.5625 9.9375 C18.60568359 8.98810547 18.64886719 8.03871094 18.69335938 7.06054688 C18.79979132 4.70721824 18.90043154 2.35362901 19 0 C21.97 0 24.94 0 28 0 C28.11618764 3.91641711 28.18724654 7.83239101 28.25 11.75 C28.28351563 12.86117187 28.31703125 13.97234375 28.3515625 15.1171875 C28.36445313 16.18710937 28.37734375 17.25703125 28.390625 18.359375 C28.41157227 19.34389648 28.43251953 20.32841797 28.45410156 21.34277344 C27.8713058 24.75306863 26.67977622 25.88158548 24 28 C20.52613568 29.15795477 17.72230696 29.16829849 14.0625 29.1875 C12.83660156 29.20167969 11.61070312 29.21585937 10.34765625 29.23046875 C7.19805035 29.01363474 5.55309297 28.78301852 3 27 C-0.70434645 21.44348032 -0.12513036 15.64806261 -0.0625 9.1875 C-0.05798828 8.30384766 -0.05347656 7.42019531 -0.04882812 6.50976562 C-0.03709866 4.33981441 -0.01916495 2.16989828 0 0 Z " fill="#1E9CD3" transform="translate(317,242)"/>
<path d="M0 0 C3.96 0 7.92 0 12 0 C19.48291572 19.96810934 19.48291572 19.96810934 22 29 C19.03 29 16.06 29 13 29 C12.67 27.35 12.34 25.7 12 24 C10.2312602 23.86486708 8.45956945 23.76794414 6.6875 23.6875 C5.70136719 23.62949219 4.71523438 23.57148438 3.69921875 23.51171875 C2.80847656 23.67285156 1.91773438 23.83398438 1 24 C0.5771875 24.825 0.154375 25.65 -0.28125 26.5 C-2 29 -2 29 -3.9128418 29.41137695 C-6.3540084 29.49238059 -8.74812457 29.43512908 -11.1875 29.3125 C-12.03248047 29.28994141 -12.87746094 29.26738281 -13.74804688 29.24414062 C-15.83278798 29.18524963 -17.91661804 29.09556798 -20 29 C-20 28.67 -20 28.34 -20 28 C-17.36 28 -14.72 28 -12 28 C-11.67 27.34 -11.34 26.68 -11 26 C-10.34 25.01 -9.68 24.02 -9 23 C-8.32745885 21.40920489 -7.69471521 19.80133019 -7.08984375 18.18359375 C-6.73986328 17.25482422 -6.38988281 16.32605469 -6.02929688 15.36914062 C-5.48885742 13.91797852 -5.48885742 13.91797852 -4.9375 12.4375 C-4.21830084 10.51921126 -3.4982886 8.6012271 -2.77734375 6.68359375 C-2.46015381 5.83337646 -2.14296387 4.98315918 -1.81616211 4.10717773 C-1 2 -1 2 0 0 Z M5 7 C3.80712589 10.87684087 3 13.91621923 3 18 C4.98 18 6.96 18 9 18 C8.76995266 12.6092003 8.76995266 12.6092003 6.4375 8 C5.963125 7.67 5.48875 7.34 5 7 Z " fill="#239DD4" transform="translate(473,242)"/>
<path d="M0 0 C4.29 0 8.58 0 13 0 C14.10697816 2.81142124 15.21063123 5.62407652 16.3125 8.4375 C16.7755957 9.6121582 16.7755957 9.6121582 17.24804688 10.81054688 C23 25.5234375 23 25.5234375 23 29 C20.03 29 17.06 29 14 29 C13.505 26.525 13.505 26.525 13 24 C9.29350775 23.71682147 5.69511423 23.53121685 2 24 C0.28288757 26.44496043 0.28288757 26.44496043 -1 29 C-3.78544496 29.4773444 -6.15218916 29.23342712 -9 29 C-8.41066394 24.94012934 -7.52036888 21.24802636 -6.15234375 17.3828125 C-5.79462891 16.36445313 -5.43691406 15.34609375 -5.06835938 14.296875 C-4.50858398 12.72679687 -4.50858398 12.72679687 -3.9375 11.125 C-3.37192383 9.52011719 -3.37192383 9.52011719 -2.79492188 7.8828125 C-1.86767432 5.25365486 -0.93442763 2.62661434 0 0 Z M6 7 C4.57741188 10.82320557 3.75957724 13.91281305 4 18 C5.98 18 7.96 18 10 18 C9.53199289 13.94393835 9.12046792 10.53411321 7 7 C6.67 7 6.34 7 6 7 Z " fill="#219DD4" transform="translate(292,242)"/>
<path d="M0 0 C0.86625 -0.00257813 1.7325 -0.00515625 2.625 -0.0078125 C5 0.125 5 0.125 8 1.125 C8.33 4.095 8.66 7.065 9 10.125 C6 10.125 6 10.125 3 8.125 C-0.04638827 8.04924122 -0.04638827 8.04924122 -3 9.125 C-5.17020292 11.21421756 -5.17020292 11.21421756 -6 14.125 C-5.23827309 17.65664296 -4.56128588 19.56371412 -2 22.125 C2.21354337 22.49953719 5.18610442 21.91977439 9 20.125 C9 23.095 9 26.065 9 29.125 C5.83990467 30.17836511 3.4446864 30.32532888 0.125 30.375 C-1.41800781 30.41367187 -1.41800781 30.41367187 -2.9921875 30.453125 C-7.44266854 29.96761798 -10.00865367 28.03373414 -13.25 25.0625 C-15.75112427 20.86418427 -16.19494601 16.97525676 -16 12.125 C-14.38794575 7.37839583 -11.75223299 4.40820387 -8 1.125 C-5.05173237 0.14224412 -3.07347496 -0.00914725 0 0 Z " fill="#239ED4" transform="translate(512,240.875)"/>
<path d="M0 0 C0.91644287 0.00523682 1.83288574 0.01047363 2.77709961 0.01586914 C3.76645508 0.0190918 4.75581055 0.02231445 5.77514648 0.02563477 C6.81606445 0.03401367 7.85698242 0.04239258 8.92944336 0.05102539 C10.49662109 0.05779297 10.49662109 0.05779297 12.09545898 0.06469727 C14.68600996 0.07652627 17.27644895 0.0930085 19.86694336 0.11352539 C19.86694336 2.42352539 19.86694336 4.73352539 19.86694336 7.11352539 C17.55694336 7.11352539 15.24694336 7.11352539 12.86694336 7.11352539 C12.86694336 14.37352539 12.86694336 21.63352539 12.86694336 29.11352539 C10.22694336 29.11352539 7.58694336 29.11352539 4.86694336 29.11352539 C3.86694336 28.11352539 3.86694336 28.11352539 3.75341797 26.07226562 C3.75865479 25.19771729 3.7638916 24.32316895 3.76928711 23.42211914 C3.77250977 22.47788086 3.77573242 21.53364258 3.77905273 20.56079102 C3.78743164 19.56756836 3.79581055 18.5743457 3.80444336 17.55102539 C3.80895508 16.55393555 3.8134668 15.5568457 3.81811523 14.52954102 C3.82994329 12.0574769 3.84642487 9.58553021 3.86694336 7.11352539 C1.88694336 7.11352539 -0.09305664 7.11352539 -2.13305664 7.11352539 C-2.51438963 5.12211979 -2.84631247 3.12073462 -3.13305664 1.11352539 C-2.13305664 0.11352539 -2.13305664 0.11352539 0 0 Z " fill="#209CD3" transform="translate(413.133056640625,241.886474609375)"/>
<path d="M0 0 C0.91644287 0.00523682 1.83288574 0.01047363 2.77709961 0.01586914 C3.76645508 0.0190918 4.75581055 0.02231445 5.77514648 0.02563477 C6.81606445 0.03401367 7.85698242 0.04239258 8.92944336 0.05102539 C10.49662109 0.05779297 10.49662109 0.05779297 12.09545898 0.06469727 C14.68600996 0.07652627 17.27644895 0.0930085 19.86694336 0.11352539 C19.86694336 2.42352539 19.86694336 4.73352539 19.86694336 7.11352539 C17.55694336 7.11352539 15.24694336 7.11352539 12.86694336 7.11352539 C13.0409668 7.93079102 13.21499023 8.74805664 13.39428711 9.59008789 C13.94135805 13.66825306 13.75079192 17.4033357 13.42944336 21.48852539 C13.37723633 22.22458008 13.3250293 22.96063477 13.27124023 23.71899414 C13.14276612 25.51763168 13.00573387 27.31565449 12.86694336 29.11352539 C10.22694336 29.11352539 7.58694336 29.11352539 4.86694336 29.11352539 C4.53694336 22.18352539 4.20694336 15.25352539 3.86694336 8.11352539 C1.55694336 7.78352539 -0.75305664 7.45352539 -3.13305664 7.11352539 C-3.1756002 5.11397793 -3.17386447 3.11310903 -3.13305664 1.11352539 C-2.13305664 0.11352539 -2.13305664 0.11352539 0 0 Z " fill="#1999D2" transform="translate(352.133056640625,241.886474609375)"/>
</svg>
